<?xml version="1.0" encoding="UTF-8"?><svg id="Layer_2" xmlns="http://www.w3.org/2000/svg" viewBox="0 0 50.51 68.96"><defs><style>.cls-1{stroke-width:2px;}.cls-1,.cls-2{fill:#727271;stroke:#727271;stroke-miterlimit:10;}.cls-2{stroke-width:.31px;}</style></defs><g id="Layer_8"><path class="cls-1" d="M49.04,48.41c-2.6,13.14-15.36,21.68-28.49,19.08C7.41,64.89-1.13,52.13,1.47,39c2.6-13.14,15.36-21.68,28.49-19.08,9.31,1.84,16.32,8.79,18.68,17.36,.97,3.52,1.16,7.31,.4,11.14Z"/><path class="cls-2" d="M25.25,.16C11.93,.16,1.13,3.42,1.13,7.43s10.8,7.28,24.13,7.28,24.13-3.26,24.13-7.28S38.58,.16,25.25,.16Zm0,12.37c-9.33,0-16.89-2.28-16.89-5.09S15.93,2.34,25.25,2.34s16.89,2.28,16.89,5.09-7.56,5.09-16.89,5.09Z"/></g></svg>