<?xml version="1.0" encoding="UTF-8"?><svg id="Layer_6" xmlns="http://www.w3.org/2000/svg" viewBox="0 0 288 288"><defs><style>.cls-1{fill:#ffb7b3;}.cls-2{fill:#727271;}</style></defs><circle class="cls-1" cx="195.24" cy="115.21" r="14.74"/><g><path class="cls-2" d="M142.12,109.72c-1.52,9.01-1.13,18.28,2.32,26.83,2.79,6.89,7.17,12.82,11.89,18.49,4.06,4.87,8.3,9.32,11.09,15.06,1.13,2.31,1.98,5.27,2.1,7.83,.16,3.34-.51,6.35-1.75,9.54-1.67,4.27-4.27,8.19-7.04,11.81-4.08,5.34-8.8,10.2-13.66,14.84-1.5,1.43-3.02,2.83-4.55,4.22-1.44,1.31,.39,3.13,1.91,2.48,17.14-7.34,33.87-15.89,49.24-26.49,11.4-7.86,22.17-16.87,31.03-27.55,6.77-8.15,12.44-17.29,15.86-27.36,2.71-8,3.91-16.59,3.03-25.02-.79-7.57-3.16-14.92-7.03-21.47s-8.69-11.68-14.55-15.95-12.18-7.11-19.01-8.6-14.2-1.48-21.11,.23c-7.5,1.86-14.37,5.69-20.16,10.77-7.08,6.21-12.46,14.23-16.42,22.72-1.16,2.49-2.22,5.04-3.18,7.61-.71,1.91,2.34,2.73,3.05,.84,3.36-9.01,8.05-17.71,14.54-24.78,5.13-5.58,11.5-10.16,18.4-12.7,6.52-2.41,12.95-3.15,19.9-2.35,.76,.09,1.25,.15,2.23,.33,.83,.14,1.66,.31,2.48,.5,1.65,.38,3.27,.85,4.87,1.4,3.1,1.07,5.86,2.35,8.84,4.13,5.72,3.4,10.95,8.18,14.78,13.47,4.28,5.91,7.05,12.2,8.5,19.31s1.23,15.55-.58,23.06c-2.26,9.4-6.71,18.1-12.31,25.95-7.35,10.3-16.69,19.15-26.69,26.85-13.49,10.39-28.41,18.89-43.75,26.23-4.48,2.14-9,4.18-13.56,6.13l1.91,2.48c5.5-4.99,10.85-10.19,15.63-15.87,3.35-3.98,6.51-8.22,8.86-12.88,3.12-6.2,4.56-13.17,2.31-19.9-2.03-6.06-6.24-11.07-10.29-15.89-4.54-5.41-9.04-10.69-12.27-17.04-3.89-7.64-5.19-16.14-4.34-24.66,.13-1.26,.3-2.52,.51-3.77,.33-1.99-2.71-2.84-3.05-.84Z"/><path class="cls-2" d="M195.24,128.37c-5.43-.06-10.51-3.43-12.36-8.61s-.29-11.16,4.01-14.73,10.48-3.92,15.18-1.07,7.2,8.51,6.07,13.89c-1.29,6.11-6.68,10.46-12.9,10.53-2.03,.02-2.04,3.18,0,3.16,6.86-.08,12.96-4.34,15.35-10.77s.31-13.79-4.89-18.06-12.97-5.05-18.88-1.46-8.84,10.43-7.59,17.12c1.42,7.63,8.35,13.09,16.01,13.18,2.03,.02,2.03-3.14,0-3.16Z"/></g><g><path class="cls-1" d="M143.64,110.14c-40.67-109.41-200.05,23.73,0,109.31,66.33-60.02-9.48-53.7,0-109.31Zm-23.86,36.45c-6.55,7.59-14.66,11.38-24.34,11.38s-18.14-3.68-24.18-11.03c-5.64-6.85-8.46-15.42-8.46-25.7s2.87-18.87,8.62-25.8c6.11-7.46,14.19-11.18,24.23-11.18s18.06,3.44,23.63,10.33c.54,.71,.81,1.29,.81,1.76,0,.57-.89,2.26-2.67,5.06-1.78,2.81-2.85,4.21-3.22,4.21-.44,0-1.46-.82-3.07-2.47-1.98-2.02-3.85-3.53-5.59-4.53-2.89-1.65-6.08-2.47-9.57-2.47-6.65,0-11.82,2.54-15.52,7.61-3.29,4.53-4.94,10.24-4.94,17.13s1.63,12.65,4.89,17.28c3.7,5.21,8.85,7.81,15.47,7.81,3.29,0,6.47-.82,9.52-2.47,2.02-1.08,4.06-2.6,6.15-4.59,1.75-1.65,2.7-2.47,2.87-2.47,.2,0,1.31,1.33,3.33,4.01,2.02,2.67,3.02,4.14,3.02,4.4,0,.4-.32,.97-.96,1.72Z"/><g><path class="cls-2" d="M145.17,109.72c-3.53-9.47-8.38-18.54-15.23-26.04-5.41-5.92-12.05-10.67-19.56-13.51-6.64-2.51-13.9-3.4-20.95-2.62s-13.82,3.07-19.92,6.65-11.58,8.55-15.86,14.33-7.52,12.87-9.05,20.1c-1.72,8.11-1.5,16.52,.37,24.59,2.23,9.65,6.73,18.7,12.42,26.77,7.47,10.6,16.89,19.7,27.09,27.64,13.76,10.7,28.93,19.45,44.63,26.96,4.54,2.17,9.12,4.24,13.75,6.22,.69,.29,1.34,.27,1.91-.25,5.5-4.99,10.85-10.19,15.63-15.87,3.35-3.98,6.51-8.22,8.86-12.88,3.12-6.2,4.56-13.17,2.31-19.9-2.03-6.06-6.24-11.07-10.29-15.89-4.54-5.41-9.04-10.69-12.27-17.04-3.89-7.64-5.19-16.14-4.34-24.66,.13-1.26,.3-2.52,.51-3.77,.33-1.99-2.71-2.84-3.05-.84-1.52,9.01-1.13,18.28,2.32,26.83,2.79,6.89,7.17,12.82,11.89,18.49,4.06,4.87,8.3,9.32,11.09,15.06,1.13,2.31,1.98,5.27,2.1,7.83,.16,3.34-.51,6.35-1.75,9.54-1.67,4.27-4.27,8.19-7.04,11.81-4.08,5.34-8.8,10.2-13.66,14.84-1.5,1.43-3.02,2.83-4.55,4.22l1.91-.25c-16.83-7.21-33.25-15.58-48.4-25.91-11.26-7.68-21.86-16.51-30.66-26.95-6.53-7.74-12.08-16.51-15.42-26.09-2.73-7.83-3.94-15.8-3.17-24.08,.64-6.95,2.91-14.07,6.48-20.2,1.81-3.12,3.66-5.64,5.98-8.22s5.02-5.01,7.45-6.79c5.56-4.09,11.37-6.81,18.01-8.31s13.28-1.46,19.64,.09c7.07,1.71,13.55,5.24,18.99,10.01,6.83,5.99,11.92,13.58,15.79,21.77,1.11,2.34,2.1,4.74,3.01,7.16,.7,1.89,3.76,1.07,3.05-.84Z"/><path class="cls-2" d="M118.67,145.47c-3.29,3.78-7.27,6.99-11.97,8.85s-9.78,2.37-14.79,1.91c-10-.92-18.26-6.9-23.03-15.63-5-9.16-5.75-20.89-3.07-30.88,2.49-9.27,8.89-18,17.96-21.7s20.21-3.03,28.27,2.13c1.93,1.24,3.66,2.75,5.19,4.47,.36,.4,.74,.81,1.02,1.27,.09,.15,.19,.3,.24,.46-.04-.12,.04-.33,0-.09-.15,.82-.86,1.75-1.28,2.46-.69,1.15-1.41,2.29-2.15,3.41-.32,.48-.64,.96-.99,1.42-.13,.18-.65,.59-.7,.78,.16-.6,1.32,1.47,1.25-.19,0-.03-.29-.15-.33-.2-.28-.35-.77-.65-1.11-.96-1.17-1.11-2.27-2.28-3.51-3.32-4.23-3.54-9.35-5.32-14.89-5.07-4.78,.22-9.33,1.86-12.88,5.12-7.85,7.21-9.36,19.62-7.11,29.55,1.1,4.83,3.42,9.6,7.06,13.03s8.05,5.01,12.84,5.24c5.66,.27,10.94-1.78,15.35-5.25,1.14-.89,2.18-1.87,3.24-2.85,.42-.39,.84-.77,1.27-1.15s.81-.41-.19-.41c-.81,0-.99-.32-.6,.16,.24,.29,.49,.57,.73,.86,.83,1.01,1.61,2.06,2.39,3.11,.66,.88,1.32,1.76,1.92,2.67,.14,.21,.27,.56,.45,.72,.21,.2-.3-.02-.06-.14l-.07-.44c-.13,.24-.29,.46-.47,.66-1.28,1.56,.94,3.81,2.23,2.23,.74-.9,1.65-2.02,1.36-3.27-.13-.56-.53-1.09-.84-1.55-1.47-2.18-3.09-4.3-4.76-6.33-.93-1.13-1.93-2.22-3.43-1.22-2.29,1.52-4.02,3.79-6.29,5.37-4.72,3.3-10.52,4.59-16.13,3.09-4.89-1.31-8.51-4.84-10.79-9.26-2.63-5.09-3.27-11.05-2.83-16.7,.41-5.28,2.13-10.65,5.73-14.63,3.38-3.74,8.05-5.47,13.04-5.46,3,0,5.96,.68,8.59,2.15s4.6,3.71,6.83,5.72c1.34,1.21,2.93,2.32,4.46,.76,1.75-1.78,3.06-4.23,4.31-6.37,.96-1.65,2.04-3.32,1.11-5.23-1.04-2.13-3.23-4.03-5.06-5.49-8.1-6.48-19.63-8.04-29.54-5.51-10.1,2.57-18.02,10.41-22.06,19.86-4.38,10.26-4.63,22.97-.77,33.43,3.58,9.69,11.07,17.94,21.1,21.01,10.02,3.07,21.56,1.52,30-4.79,2.19-1.64,4.17-3.51,5.97-5.57,1.33-1.53-.9-3.77-2.23-2.23Z"/></g></g></svg>